<svg xmlns="http://www.w3.org/2000/svg" width="383" height="34" fill="none"><path d="M1.063 32.508L.36 24.516c1.75.78 3.305 1.328 4.664 1.64 1.375.297 2.578.445 3.61.445 1.36 0 2.437-.195 3.234-.586.813-.406 1.22-1 1.22-1.78 0-.266-.04-.516-.117-.75-.078-.25-.227-.524-.445-.82-.22-.312-.53-.65-.937-1.008L7.18 17.813l-2.156-1.898c-.828-.797-1.477-1.54-1.945-2.227-.453-.687-.79-1.383-1.008-2.086-.203-.72-.305-1.477-.305-2.273 0-.953.164-1.883.492-2.79a8.7 8.7 0 0 1 1.523-2.578c.672-.797 1.563-1.484 2.672-2.062A11.65 11.65 0 0 1 10.016.727c1.266-.22 2.57-.328 3.914-.328 2.64 0 5.516.305 8.625.914l.164 2.977.445 4.71c-1.437-.578-2.75-.977-3.937-1.195-1.187-.234-2.21-.352-3.07-.352-1.22 0-2.234.227-3.047.68-.797.453-1.195 1.016-1.195 1.688 0 .312.063.617.188.914s.36.648.703 1.055c.344.39.797.828 1.36 1.313l2.648 2.11 1.688 1.336c.5.406 1.04.898 1.617 1.476a16.11 16.11 0 0 1 1.5 1.711c.422.563.742 1.078.96 1.547a6.29 6.29 0 0 1 .516 1.43c.11.47.164.977.164 1.524 0 1.406-.336 2.75-1.008 4.03-.672 1.266-1.625 2.313-2.86 3.14-1.234.813-2.594 1.383-4.078 1.71-1.47.328-3.023.492-4.664.492-2.53 0-5.727-.367-9.586-1.102zM53.82 33l-4.453-.047-4.43.047-.023-3.21c-.562.703-1.04 1.234-1.43 1.594a7.66 7.66 0 0 1-1.289.914c-.453.266-.97.5-1.547.703-.562.188-1.22.336-1.97.445a15.25 15.25 0 0 1-2.25.164 13.55 13.55 0 0 1-3.516-.445c-1.094-.28-2.062-.766-2.906-1.453-.828-.687-1.398-1.47-1.71-2.344-.297-.875-.445-1.89-.445-3.047 0-.28.023-.72.07-1.312l.375-5.32.305-6.492.094-4.125 4.945.047 4.547-.047L37.46 18l-.187 2.79v.984c0 1.64.328 2.75.984 3.328.672.578 1.47.867 2.39.867a4 4 0 0 0 1.125-.164 4.7 4.7 0 0 0 1.078-.469c.297-.187.57-.422.82-.703.266-.297.5-.656.703-1.078.25-.516.438-1.07.563-1.664.172-.828.305-1.875.398-3.14l.258-4.78.187-4.898 4.97.047 4.383-.047c-.36 3.97-.64 7.742-.844 11.32s-.36 7.78-.47 12.61zm5.39 0l.656-11.297.375-8.836.047-3.797 4.547.047 4.336-.047-.164 3.117c.484-.625.89-1.102 1.22-1.43.344-.344.758-.664 1.242-.96.484-.312.984-.555 1.5-.727.516-.187 1.094-.336 1.734-.445s1.313-.164 2.016-.164c.797 0 1.53.07 2.203.21.672.125 1.25.29 1.734.492a6.07 6.07 0 0 1 1.266.703c.36.266.672.57.938.914.28.328.602.813.96 1.453.688-1 1.414-1.758 2.18-2.273s1.633-.89 2.602-1.125c.984-.25 1.992-.375 3.023-.375 1.36 0 2.64.195 3.844.586s2.187 1.07 2.953 2.04c.78.953 1.172 2.195 1.172 3.727 0 .72-.055 1.805-.164 3.258l-.422 7.5-.28 7.43-4.172-.047-5.156.047c.156-1.984.313-4.47.47-7.453l.258-6.234c0-1-.117-1.742-.352-2.227-.234-.5-.54-.836-.914-1.008-.36-.187-.758-.28-1.195-.28-.47 0-.875.086-1.22.258-.375.188-.703.476-.984.867-.375.516-.68 1.164-.914 1.945-.187.61-.336 1.54-.445 2.79-.11 1.28-.195 2.97-.258 5.063L83.656 33l-4.523-.047L74.28 33c.14-1.39.305-3.727.492-7.008l.28-6.586c0-.937-.094-1.64-.28-2.11s-.453-.844-.797-1.125c-.328-.28-.773-.422-1.336-.422-.61 0-1.14.18-1.594.54s-.844.875-1.172 1.547c-.312.672-.54 1.602-.68 2.79-.125 1.172-.242 2.97-.352 5.39A224.71 224.71 0 0 0 68.633 33l-4.594-.047L59.21 33zm44.766 0l.656-11.297.375-8.836.047-3.797 4.547.047 4.336-.047-.165 3.117c.485-.625.89-1.102 1.22-1.43.344-.344.758-.664 1.242-.96.485-.312.985-.555 1.5-.727.516-.187 1.094-.336 1.735-.445s1.312-.164 2.015-.164a10.77 10.77 0 0 1 2.204.211c.67.125 1.25.29 1.734.492s.906.438 1.266.703a4.75 4.75 0 0 1 .937.914c.28.328.602.813.96 1.453.687-1 1.414-1.758 2.18-2.273s1.632-.89 2.6-1.125a12.24 12.24 0 0 1 3.024-.375c1.36 0 2.64.195 3.843.586s2.188 1.07 2.954 2.04c.78.953 1.17 2.195 1.17 3.727 0 .72-.054 1.805-.164 3.258l-.422 7.5-.28 7.43-4.172-.047-5.156.047c.156-1.984.313-4.47.47-7.453l.258-6.234c0-1-.118-1.742-.352-2.227-.234-.5-.54-.836-.914-1.008-.36-.187-.758-.28-1.195-.28-.47 0-.875.086-1.22.258-.375.188-.703.476-.984.867-.375.516-.68 1.164-.915 1.945-.187.61-.335 1.54-.445 2.79-.11 1.28-.195 2.97-.258 5.063l-.187 6.28-4.524-.047-4.85.047c.14-1.39.305-3.727.492-7.008l.28-6.586c0-.937-.093-1.64-.28-2.11s-.453-.844-.797-1.125c-.328-.28-.773-.422-1.336-.422-.61 0-1.14.18-1.594.54s-.843.875-1.17 1.547c-.313.672-.54 1.602-.68 2.79-.125 1.172-.242 2.97-.352 5.39s-.18 4.75-.21 6.984l-4.593-.047-4.828.047zm46.898-17.11l.563-3.187.374-2.766c4.5-.984 8.368-1.477 11.602-1.477 1.844 0 3.53.21 5.063.633 1.53.406 2.726 1.07 3.585 1.992s1.3 2.242 1.3 3.96c0 .875-.118 2.844-.352 5.906s-.414 7.078-.54 12.047l-4.57-.047-4.688.047c.22-1.72.46-5.266.727-10.64-.594.28-1.063.484-1.407.61-.328.125-.914.312-1.757.562s-1.508.46-1.993.633c-.468.172-.882.39-1.242.656-.343.266-.593.54-.75.82-.14.28-.21.594-.21.938 0 .53.21.984.633 1.36s1.094.563 2.016.563c.328 0 .68-.023 1.054-.07.375-.062.89-.203 1.547-.422-.453 1.203-.992 2.96-1.617 5.273a23.81 23.81 0 0 1-3.82.328c-1.938 0-3.555-.266-4.852-.797-1.28-.547-2.273-1.422-2.976-2.625-.688-1.203-1.032-2.406-1.032-3.61a6.39 6.39 0 0 1 .375-2.156c.266-.703.672-1.39 1.22-2.062s1.188-1.242 1.922-1.71c.734-.484 1.734-.937 3-1.36 1.28-.422 2.9-.82 4.852-1.195.812-.156 1.554-.32 2.226-.492.688-.187 1.172-.344 1.453-.47.297-.14.532-.297.703-.47.188-.187.32-.375.4-.562a1.75 1.75 0 0 0 .117-.633c0-.594-.25-1.047-.75-1.36-.5-.328-1.234-.492-2.203-.492-2.688 0-6.008.758-9.96 2.273zM177.71 33l.727-10.406.234-5.977.023-3.305-.047-4.242 4.5.047 4.477-.047-.094 2.648c.6-.688 1.1-1.195 1.5-1.524.39-.344.836-.648 1.336-.914a5.85 5.85 0 0 1 1.571-.609c.546-.14 1.117-.21 1.7-.21.563 0 1.188.078 1.875.234.016 1.703.055 3.11.118 4.22l.164 3.61c-.86-.25-1.664-.375-2.414-.375-.938 0-1.75.14-2.438.422-.672.266-1.273.68-1.805 1.242-.515.547-.93 1.234-1.242 2.063s-.53 2.14-.656 3.938-.188 3.852-.188 6.164c0 .813.032 1.82.094 3.023l-4.57-.047-4.875.047zm21.984-26.906c.094-1.86.14-3.328.14-4.406a44.32 44.32 0 0 0-.024-1.266l4.758.047 4.64-.047a26.12 26.12 0 0 0-.094 1.219l-.14 2.906a21.62 21.62 0 0 0-.047 1.547l-4.453-.047-4.782.047zM198.22 33l.492-4.71c.11-1.234.21-2.812.305-4.734l.28-6.375.187-8.11 4.875.047 4.782-.047c-.266 2.953-.46 5.547-.586 7.78a193.58 193.58 0 0 0-.211 7.101L208.25 33l-4.805-.047-5.226.047zm38.343-7.078c-.203.938-.593 3.203-1.17 6.797-1.813.36-3.336.594-4.57.703a37.19 37.19 0 0 1-3.75.188c-1.86 0-3.57-.133-5.132-.398-1.563-.25-2.915-.703-4.055-1.36-1.125-.656-2.07-1.47-2.836-2.437-.766-.984-1.352-2.15-1.758-3.492-.39-1.344-.586-2.727-.586-4.15 0-2 .4-3.953 1.195-5.86.797-1.922 1.82-3.422 3.07-4.5 1.265-1.078 2.72-1.844 4.36-2.297a18.84 18.84 0 0 1 5.039-.68c1.78 0 3.477.21 5.086.633 1.625.406 3 1.125 4.125 2.156s1.922 2.195 2.39 3.492c.484 1.297.726 2.695.726 4.195 0 .89-.1 1.883-.304 2.976l-16.43.024c-.016.25-.023.476-.023.68 0 1.687.6 2.93 1.804 3.726s2.672 1.195 4.406 1.195c1.032 0 2.204-.117 3.516-.35 1.328-.25 2.96-.664 4.898-1.242zm-14.414-7.594h7.735c.015-.266.023-.492.023-.68 0-.812-.148-1.508-.445-2.086a2.64 2.64 0 0 0-1.242-1.266c-.53-.266-1.133-.4-1.805-.4a4.01 4.01 0 0 0-1.359.234c-.438.14-.836.36-1.196.656-.343.28-.632.61-.867.984s-.406.742-.515 1.102c-.1.344-.22.828-.33 1.453zm19.43 14.227l-.187-2.156-.305-3.14-.188-1.687c1.516.594 2.82 1.04 3.914 1.336 1.094.28 2.102.422 3.024.422.766 0 1.383-.07 1.852-.21.484-.14.835-.344 1.054-.61s.328-.54.328-.82c0-.25-.086-.492-.258-.727-.156-.25-.523-.586-1.1-1.008l-3.4-2.555c-.968-.766-1.703-1.445-2.203-2.04-.484-.594-.86-1.234-1.125-1.922-.25-.687-.375-1.398-.375-2.133 0-1.297.368-2.508 1.102-3.633.75-1.125 1.844-1.938 3.28-2.438 1.453-.516 3.22-.773 5.297-.773 2.172 0 4.945.28 8.32.844l.375 6.586c-1.9-.75-3.71-1.125-5.46-1.125-1.234 0-2.132.125-2.695.375-.547.25-.82.633-.82 1.15 0 .172.03.336.094.492s.17.32.328.492a7.48 7.48 0 0 0 .609.539l1.78 1.242c.938.656 1.672 1.195 2.203 1.617.875.688 1.54 1.328 1.993 1.922.468.578.82 1.203 1.054 1.875a5.81 5.81 0 0 1 .375 2.086c0 1.11-.273 2.133-.82 3.07-.53.922-1.344 1.695-2.437 2.32-1.08.625-2.25 1.055-3.516 1.29-1.266.25-2.57.375-3.914.375-.906 0-2.047-.078-3.422-.234-1.36-.156-2.945-.43-4.758-.82z" fill="#006dab"/><path d="M265.203 33l.328-8.484 4.828.07 4.08-.07-.422 8.484-4.078-.047-4.735.047zm41.906-7.805l-.68 3.867-.54 3.82c-3.344.484-6.33.727-8.953.727-2.532 0-4.89-.312-7.08-.937-2.17-.64-4.17-1.68-6-3.117-1.812-1.453-3.11-3.156-3.9-5.11s-1.172-4.14-1.172-6.562c0-2.828.523-5.367 1.57-7.617a15 15 0 0 1 4.547-5.648c1.984-1.516 4.156-2.594 6.516-3.234 2.36-.656 4.797-.984 7.312-.984 2.313 0 5.172.297 8.578.89l.047 1.97.14 2.836.164 2.672-4.453-.89c-1.125-.156-2.172-.234-3.14-.234-2.11 0-4.008.422-5.695 1.266s-3.016 2.07-3.985 3.68-1.453 3.39-1.453 5.344c0 1.78.407 3.313 1.22 4.594.813 1.266 1.906 2.25 3.28 2.953 1.39.688 3.102 1.03 5.133 1.03 1.1 0 2.313-.086 3.6-.258 1.312-.187 2.953-.54 4.92-1.055zM325.273 8.46c1.938 0 3.797.297 5.58.89 1.796.594 3.312 1.453 4.546 2.578 1.235 1.11 2.14 2.414 2.72 3.914.594 1.484.89 3.086.89 4.805 0 1.672-.266 3.266-.797 4.78-.516 1.5-1.4 2.914-2.65 4.242-1.25 1.313-2.843 2.297-4.78 2.953-1.922.656-3.96.984-6.117.984-1.984 0-3.89-.29-5.72-.867s-3.36-1.422-4.593-2.53a10.77 10.77 0 0 1-2.766-3.984c-.61-1.547-.914-3.172-.914-4.875s.297-3.328.9-4.875c.6-1.547 1.563-2.938 2.86-4.172 1.312-1.234 2.93-2.18 4.85-2.836a18.05 18.05 0 0 1 6-1.008zm-.164 6.89c-1 0-1.9.258-2.67.773s-1.376 1.273-1.782 2.273c-.4.984-.586 2.063-.586 3.234 0 1.72.43 3.04 1.29 3.96.86.906 1.938 1.36 3.235 1.36.984 0 1.867-.258 2.648-.773.78-.53 1.367-1.305 1.758-2.32.406-1.03.61-2.133.61-3.305 0-.97-.156-1.844-.468-2.625s-.83-1.406-1.547-1.875c-.703-.47-1.532-.703-2.485-.703zM342.57 33l.657-11.297.375-8.836.046-3.797 4.547.047 4.336-.047-.164 3.117 1.22-1.43c.344-.344.758-.664 1.242-.96.484-.312.984-.555 1.5-.727.516-.187 1.094-.336 1.734-.445s1.313-.164 2.016-.164a10.76 10.76 0 0 1 2.203.211c.672.125 1.25.29 1.735.492s.906.438 1.265.703.672.57.938.914c.28.328.6.813.96 1.453.687-1 1.414-1.758 2.18-2.273s1.633-.89 2.602-1.125a12.23 12.23 0 0 1 3.023-.375 12.37 12.37 0 0 1 3.844.586c1.203.39 2.188 1.07 2.953 2.04.78.953 1.172 2.195 1.172 3.727 0 .72-.055 1.805-.164 3.258l-.422 7.5-.28 7.43-4.172-.047-5.156.047.47-7.453.257-6.234c0-1-.117-1.742-.35-2.227-.235-.5-.54-.836-.914-1.008-.36-.187-.758-.28-1.196-.28-.468 0-.875.086-1.218.258-.375.188-.703.476-.985.867-.375.516-.68 1.164-.914 1.945-.187.61-.336 1.54-.445 2.79l-.258 5.063-.187 6.28-4.524-.047-4.85.047.492-7.008.28-6.586c0-.937-.094-1.64-.28-2.11s-.453-.844-.797-1.125c-.328-.28-.774-.422-1.336-.422a2.49 2.49 0 0 0-1.594.539c-.453.36-.844.875-1.172 1.547-.312.672-.54 1.602-.68 2.79l-.352 5.39-.21 6.984-4.594-.047-4.828.047z" fill="#7b8b8e"/></svg>